# xmcd CD database file
#
# Track frame offsets:
#	150
#	17069
#	36052
#	54814
#	70389
#
# Disc length: 1038 seconds
#
# Revision: 0
# Processed by: cddbd v1.5.1PL0 Copyright (c) Steve Scherf et al.
# Submitted via: CDex 1.51
#
DISCID=37040c05
DTITLE=N-Ie! - Eye Of The Tiger
DYEAR=1900
DGENRE=サウンドトラック (一般)
TTITLE0=N-Ie -The Kingdom Of Kogan-
TTITLE1=Ubugoe -Birth Of A Monster-
TTITLE2=Shooting Star 〜星流れ〜
TTITLE3=うきうき三重様 〜躁Mix〜
TTITLE4=独 -Yamazaki Style-
EXTD=
EXTT0=
EXTT1=
EXTT2=
EXTT3=
EXTT4=
PLAYORDER=
